<svg width="24" height="24" viewBox="0 0 24 24" fill="none" xmlns="http://www.w3.org/2000/svg">
<path d="M12 5.6079L11.46 6.1279C11.53 6.20048 11.6138 6.25822 11.7066 6.29766C11.7994 6.33709 11.8992 6.35742 12 6.35742C12.1008 6.35742 12.2006 6.33709 12.2934 6.29766C12.3862 6.25822 12.47 6.20048 12.54 6.1279L12 5.6079ZM9.426 18.4299C7.91 17.2349 6.253 16.0679 4.938 14.5879C3.65 13.1359 2.75 11.4429 2.75 9.2449H1.25C1.25 11.9109 2.36 13.9449 3.817 15.5839C5.247 17.1939 7.071 18.4839 8.497 19.6079L9.426 18.4299ZM2.75 9.2449C2.75 7.0949 3.965 5.2909 5.624 4.5319C7.236 3.7949 9.402 3.9899 11.46 6.1279L12.54 5.0889C10.1 2.5519 7.264 2.1329 5 3.1679C2.786 4.1809 1.25 6.5329 1.25 9.2449H2.75ZM8.497 19.6079C9.01 20.0119 9.56 20.4419 10.117 20.7679C10.674 21.0939 11.31 21.3579 12 21.3579V19.8579C11.69 19.8579 11.326 19.7379 10.874 19.4729C10.421 19.2089 9.952 18.8449 9.426 18.4299L8.497 19.6079ZM15.503 19.6079C16.929 18.4829 18.753 17.1949 20.183 15.5839C21.64 13.9439 22.75 11.9109 22.75 9.2449H21.25C21.25 11.4429 20.35 13.1359 19.062 14.5879C17.747 16.0679 16.09 17.2349 14.574 18.4299L15.503 19.6079ZM22.75 9.2449C22.75 6.5329 21.215 4.1809 19 3.1679C16.736 2.1329 13.902 2.5519 11.46 5.0879L12.54 6.1279C14.598 3.9909 16.764 3.7949 18.376 4.5319C20.035 5.2909 21.25 7.0939 21.25 9.2449H22.75ZM14.574 18.4299C14.048 18.8449 13.579 19.2089 13.126 19.4729C12.673 19.7369 12.31 19.8579 12 19.8579V21.3579C12.69 21.3579 13.326 21.0929 13.883 20.7679C14.441 20.4419 14.99 20.0119 15.503 19.6079L14.574 18.4299Z" fill="#FF0000"/>
<path d="M9.33286 3.66406L11.9261 5.27637L12.8373 4.50516L15.0802 3.66406H18.094L20.8975 5.27637L21.9488 8.99081L20.8975 13.6166L17.0426 17.8219L12.3467 20.8357L10.2441 19.8545L3.9362 14.5979L2.18408 12.2149V7.44887L3.9362 4.50516L6.94978 3.66406H9.33286Z" fill="#FF0000"/>
</svg>
