<svg width="24" height="25" viewBox="0 0 24 25" fill="none" xmlns="http://www.w3.org/2000/svg">
<path d="M12 6.00829L11.46 6.52829C11.53 6.60087 11.6138 6.65861 11.7066 6.69805C11.7994 6.73748 11.8992 6.75781 12 6.75781C12.1008 6.75781 12.2006 6.73748 12.2934 6.69805C12.3862 6.65861 12.47 6.60087 12.54 6.52829L12 6.00829ZM9.426 18.8303C7.91 17.6353 6.253 16.4683 4.938 14.9883C3.65 13.5363 2.75 11.8433 2.75 9.64529H1.25C1.25 12.3113 2.36 14.3453 3.817 15.9843C5.247 17.5943 7.071 18.8843 8.497 20.0083L9.426 18.8303ZM2.75 9.64529C2.75 7.49529 3.965 5.69129 5.624 4.93229C7.236 4.19529 9.402 4.39029 11.46 6.52829L12.54 5.48929C10.1 2.95229 7.264 2.53329 5 3.56829C2.786 4.58129 1.25 6.93329 1.25 9.64529H2.75ZM8.497 20.0083C9.01 20.4123 9.56 20.8423 10.117 21.1683C10.674 21.4943 11.31 21.7583 12 21.7583V20.2583C11.69 20.2583 11.326 20.1383 10.874 19.8733C10.421 19.6093 9.952 19.2453 9.426 18.8303L8.497 20.0083ZM15.503 20.0083C16.929 18.8833 18.753 17.5953 20.183 15.9843C21.64 14.3443 22.75 12.3113 22.75 9.64529H21.25C21.25 11.8433 20.35 13.5363 19.062 14.9883C17.747 16.4683 16.09 17.6353 14.574 18.8303L15.503 20.0083ZM22.75 9.64529C22.75 6.93329 21.215 4.58129 19 3.56829C16.736 2.53329 13.902 2.95229 11.46 5.48829L12.54 6.52829C14.598 4.39129 16.764 4.19529 18.376 4.93229C20.035 5.69129 21.25 7.49429 21.25 9.64529H22.75ZM14.574 18.8303C14.048 19.2453 13.579 19.6093 13.126 19.8733C12.673 20.1373 12.31 20.2583 12 20.2583V21.7583C12.69 21.7583 13.326 21.4933 13.883 21.1683C14.441 20.8423 14.99 20.4123 15.503 20.0083L14.574 18.8303Z" fill="#6A6A6A"/>
</svg>
