<svg width="203" height="120" viewBox="0 0 203 120" fill="none" xmlns="http://www.w3.org/2000/svg">
<g clip-path="url(#clip0_113_21)">
<path fill-rule="evenodd" clip-rule="evenodd" d="M0.0846885 0.0738437C0.0380338 0.120498 0 20.2931 0 44.9019V89.6453L19.7309 89.6053C30.5832 89.583 39.6763 89.5318 39.9385 89.4917C40.2002 89.4511 40.7757 89.3817 41.2179 89.3375C41.6596 89.2929 41.9964 89.2173 41.9664 89.1692C41.937 89.121 42.0709 89.0911 42.2646 89.1027C42.4583 89.1144 42.6171 89.086 42.6171 89.0399C42.6171 88.9942 42.9249 88.8994 43.3012 88.8289C44.6197 88.5829 45.1674 88.4445 45.2845 88.3274C45.3494 88.2624 45.5223 88.2097 45.6694 88.2097C45.816 88.2097 45.9691 88.1559 46.0097 88.0905C46.0497 88.0251 46.1963 87.9714 46.3348 87.9714C46.4727 87.9714 46.6933 87.8775 46.8241 87.7629C46.955 87.6483 47.0199 87.627 46.9681 87.7153C46.854 87.91 47.316 87.693 47.4382 87.4947C47.4788 87.4298 47.5914 87.376 47.6888 87.376C47.7866 87.376 48.0853 87.2705 48.3526 87.1412C48.6203 87.0119 48.8855 86.9348 48.9423 86.9698C48.9986 87.0048 49.0453 86.9612 49.0453 86.8735C49.0453 86.7852 49.3932 86.5829 49.8186 86.4241C50.2446 86.2649 50.5925 86.0834 50.5925 86.0215C50.5925 85.9591 50.6239 85.9393 50.6625 85.9779C50.7005 86.0159 50.8567 85.9393 51.0088 85.807C51.161 85.6746 51.3192 85.5737 51.3603 85.5828C51.4008 85.5915 51.5165 85.5169 51.6174 85.4165C51.7178 85.3156 51.8765 85.2334 51.9703 85.2334C52.0636 85.2334 52.1402 85.1822 52.1402 85.1198C52.1402 85.0575 52.341 84.9119 52.5865 84.7968C52.8319 84.6812 53.125 84.4717 53.2371 84.3308C53.3497 84.1903 53.6033 84.0082 53.801 83.9261C53.9988 83.8444 54.1342 83.7344 54.1023 83.6822C54.0698 83.6299 54.2448 83.4656 54.4907 83.317C55.1454 82.921 56.6637 81.5036 56.6637 81.2881C56.6637 81.2242 56.7114 81.2014 56.7697 81.2374C56.828 81.2734 56.9578 81.1775 57.0582 81.0244C57.1586 80.8712 57.4523 80.537 57.7109 80.2814C57.969 80.0264 58.218 79.6967 58.2637 79.5492C58.3093 79.4021 58.4244 79.2814 58.5198 79.2814C58.6151 79.2814 58.7414 79.1556 58.7997 79.002C58.858 78.8483 59.0725 78.54 59.2759 78.3174C59.4792 78.0948 59.7094 77.7692 59.787 77.5937C59.8646 77.4183 59.9701 77.3006 60.0208 77.3321C60.0715 77.3635 60.0837 77.3118 60.0472 77.2169C60.0102 77.1201 60.0893 76.9684 60.2262 76.8726C60.3611 76.7778 60.4361 76.6652 60.393 76.6221C60.3499 76.579 60.3728 76.5435 60.4438 76.5435C60.5147 76.5435 60.6101 76.3756 60.6552 76.1702C60.7156 75.8959 60.7648 75.8411 60.8413 75.9623C60.9377 76.1145 60.9681 76.0561 60.9438 75.7656C60.9407 75.7306 61.0482 75.5627 61.1821 75.3923C61.316 75.2219 61.4255 74.9795 61.4255 74.8538C61.4255 74.7168 61.4783 74.6575 61.5574 74.7062C61.6461 74.761 61.6629 74.7047 61.6086 74.5348C61.5523 74.3568 61.5792 74.2817 61.6994 74.2817C61.8028 74.2817 61.9311 74.0581 62.0229 73.7163C62.1066 73.4054 62.2836 73.0302 62.4164 72.8831C62.5954 72.6838 62.6137 72.6149 62.4879 72.6133C62.3789 72.6123 62.3637 72.5804 62.4458 72.5241C62.5818 72.4313 62.745 72.0895 62.81 71.7629C62.8313 71.6544 62.9616 71.375 63.099 71.1417C63.2364 70.9089 63.3186 70.6696 63.2821 70.6097C63.2451 70.5499 63.2948 70.3415 63.3921 70.1462C63.4895 69.9515 63.5904 69.6366 63.6168 69.4474C63.7121 68.7648 63.8379 68.3297 63.9403 68.3297C63.9976 68.3297 64.0443 68.2729 64.0443 68.2034C64.0443 68.134 63.9773 68.1177 63.8957 68.1669C63.7857 68.2329 63.7877 68.206 63.9028 68.064C63.9885 67.958 64.0752 67.7465 64.0955 67.5944C64.1153 67.4423 64.1624 67.2374 64.2 67.139C64.5418 66.2414 64.6878 60.4365 64.4216 58.3299C64.343 57.7082 64.2492 56.9581 64.2126 56.6635C64.1766 56.3689 64.1046 56.1123 64.0524 56.0935C64.0002 56.0747 63.9763 55.8978 63.9991 55.7005C64.0225 55.5032 63.9951 55.3704 63.9388 55.4053C63.8825 55.4403 63.7993 55.1913 63.7547 54.8526C63.7096 54.5138 63.6371 54.1802 63.594 54.1112C63.5503 54.0417 63.4966 53.851 63.4748 53.6877C63.4525 53.5239 63.3871 53.3728 63.3292 53.3525C63.2714 53.3317 63.2537 53.2379 63.2902 53.1441C63.3262 53.0503 63.2932 52.9732 63.2167 52.9732C63.1406 52.9732 63.1147 52.9139 63.1599 52.8409C63.2045 52.7683 63.1903 52.6745 63.1279 52.6324C62.9986 52.5462 62.6157 51.4214 62.6157 51.1283C62.6157 51.0223 62.564 50.9676 62.5001 51.0071C62.4367 51.0462 62.3515 50.9458 62.311 50.784C62.2704 50.6217 61.9737 49.9635 61.6527 49.3205C61.3312 48.6779 61.0685 48.0871 61.0685 48.0075C61.0685 47.9279 60.961 47.8057 60.8302 47.7352C60.6993 47.6652 60.5923 47.5324 60.5923 47.4396C60.5923 47.3468 60.3509 46.9258 60.0563 46.5044C59.7617 46.083 59.5208 45.6783 59.5208 45.6058C59.5208 45.5333 59.4807 45.4872 59.4315 45.5034C59.3824 45.5196 59.3423 45.5044 59.3423 45.4694C59.3423 45.4339 59.1684 45.2199 58.9559 44.9932C58.7434 44.7665 58.5694 44.5338 58.5689 44.476C58.5684 44.4182 58.3808 44.194 58.1516 43.978C57.9224 43.7619 57.7352 43.5393 57.7352 43.484C57.7352 43.4283 57.4675 43.1504 57.1399 42.8664C56.4832 42.2969 56.4492 42.2086 56.753 41.8618C56.9076 41.6848 56.9152 41.6463 56.7829 41.7122C56.6845 41.7609 56.7083 41.7167 56.8351 41.6138C56.9624 41.5103 57.0161 41.4246 56.9543 41.4226C56.8929 41.4206 56.937 41.3638 57.0532 41.2963C57.1693 41.2289 57.2352 41.127 57.2002 41.0702C57.1647 41.0129 57.1911 40.9322 57.2591 40.8907C57.3265 40.8486 57.3508 40.7649 57.3133 40.7035C57.2758 40.6427 57.3047 40.593 57.3782 40.593C57.4513 40.593 57.4776 40.5392 57.4371 40.4733C57.3965 40.4074 57.4426 40.3227 57.54 40.2852C57.6369 40.2481 57.7469 40.1386 57.7839 40.0417C57.828 39.9271 57.8022 39.8967 57.7104 39.9535C57.6328 40.0017 57.6891 39.8724 57.8362 39.666C57.9827 39.4601 58.1825 39.0219 58.2804 38.6923C58.3783 38.3627 58.5157 38.0929 58.5857 38.0929C58.6557 38.0929 58.682 38.0128 58.6445 37.9144C58.6065 37.8165 58.6252 37.7359 58.6856 37.7359C58.7464 37.7359 58.8316 37.5351 58.8757 37.2896C58.9199 37.0442 59.0228 36.7627 59.1045 36.6643C59.1861 36.5665 59.2378 36.392 59.2191 36.2779C59.2003 36.1633 59.2424 36.0695 59.3129 36.0695C59.3839 36.0695 59.4087 36.0365 59.3682 35.9965C59.3281 35.9564 59.3656 35.7287 59.4513 35.4904C59.6562 34.9204 59.8778 33.9832 59.8778 33.6871C59.8778 33.5567 59.927 33.4502 59.9868 33.4502C60.0472 33.4502 60.0817 33.2651 60.0634 33.038C60.0457 32.8113 60.0736 32.6104 60.1258 32.5917C60.3048 32.5278 60.6299 28.1848 60.5381 27.0819C60.5056 26.6888 60.4448 25.8049 60.4022 25.1178C60.3241 23.8414 60.287 23.4372 60.2374 23.3317C60.2221 23.2993 60.2196 23.1253 60.2313 22.9448C60.2434 22.7648 60.1968 22.6177 60.1288 22.6177C60.0604 22.6177 60.0355 22.5366 60.0736 22.4377C60.1116 22.3388 60.0852 22.1887 60.0152 22.1045C59.9458 22.0203 59.853 21.7125 59.8093 21.4214C59.7662 21.1298 59.6253 20.5167 59.4959 20.0583C59.3671 19.5999 59.2571 19.1582 59.252 19.076C59.247 18.9944 59.2028 18.9274 59.1531 18.9274C59.0695 18.9274 58.8727 18.255 58.9366 18.1855C58.9528 18.1678 58.892 18.0197 58.8022 17.8559C58.7125 17.6921 58.6191 17.4248 58.5953 17.261C58.572 17.0978 58.4756 16.9208 58.3818 16.868C58.288 16.8158 58.2114 16.6946 58.2114 16.5987C58.2114 16.5029 58.1607 16.3315 58.0994 16.2174C58.038 16.1038 57.9574 15.8675 57.9208 15.692C57.8838 15.5166 57.787 15.302 57.7048 15.2158C57.6232 15.1291 57.4492 14.8441 57.3184 14.5825C57.1876 14.3203 56.9999 14.0353 56.902 13.9486C56.7763 13.8375 56.7722 13.8162 56.8884 13.8765C56.9796 13.9237 56.8214 13.6473 56.5369 13.2624C56.2524 12.8775 55.9051 12.3354 55.7641 12.057C55.6231 11.7791 55.4735 11.5864 55.4314 11.6285C55.3888 11.6711 55.3543 11.6533 55.3543 11.5889C55.3543 11.525 55.2458 11.3567 55.114 11.2147C54.9816 11.0722 54.8868 10.9419 54.903 10.9241C54.973 10.8501 54.5521 10.3648 54.4806 10.4368C54.4375 10.4799 54.402 10.4393 54.402 10.3465C54.402 10.2537 54.2676 10.022 54.1043 9.83178C53.9405 9.64161 53.8066 9.4408 53.8066 9.38552C53.8066 9.33024 53.7534 9.28511 53.6879 9.28511C53.5399 9.28511 53.0926 8.84696 53.0926 8.70193C53.0926 8.64361 52.905 8.43062 52.6757 8.2298C52.4465 8.02848 52.2594 7.80839 52.2594 7.74094C52.2594 7.67349 52.2188 7.6309 52.1701 7.64662C52.0246 7.69226 51.3106 7.11313 51.378 7.0041C51.412 6.94933 51.3872 6.9042 51.3222 6.9042C51.2578 6.9042 51.1316 6.83067 51.0418 6.74091C50.952 6.65115 50.7071 6.48938 50.4977 6.38085C50.2877 6.27233 50.1163 6.15519 50.1163 6.1202C50.1163 6.08521 50.1701 6.08977 50.2355 6.13034C50.3009 6.17091 50.3547 6.17851 50.3547 6.14707C50.3547 6.11614 50.1538 5.96806 49.9079 5.81897C49.6624 5.66988 49.3633 5.43762 49.2436 5.30323C49.1234 5.16885 48.9895 5.05728 48.9459 5.05474C48.8044 5.04714 48.2927 4.73526 48.0483 4.50756C47.917 4.38535 47.6593 4.21902 47.4753 4.13737C47.2912 4.05572 47.1406 3.94568 47.1406 3.89193C47.1406 3.83868 47.0868 3.82803 47.0214 3.8686C46.956 3.90917 46.9022 3.88685 46.9022 3.8189C46.9022 3.70125 46.1857 3.33207 45.6207 3.16016C45.46 3.11097 45.3839 3.02121 45.4316 2.93753C45.4757 2.86045 45.4721 2.83307 45.423 2.87718C45.3738 2.9213 45.0685 2.80061 44.7439 2.60943C44.4194 2.41824 44.0892 2.26104 44.0101 2.26104C43.9315 2.26053 43.715 2.18091 43.5294 2.08405C43.3438 1.9877 42.9822 1.85179 42.7261 1.78283C42.4695 1.71386 42.2596 1.60584 42.2596 1.54296C42.2596 1.47957 42.0724 1.42835 41.8432 1.42835C41.614 1.42835 41.4264 1.3817 41.4264 1.32439C41.4264 1.2676 41.1987 1.17936 40.9203 1.12915C40.0298 0.968397 39.9598 0.949634 39.8142 0.828433C39.7351 0.763522 39.584 0.743238 39.4775 0.784314C39.3665 0.826912 39.2838 0.799021 39.2838 0.718896C39.2838 0.633193 39.1915 0.608345 39.0455 0.654492C38.9146 0.696076 38.8076 0.676298 38.8076 0.610373C38.8076 0.544448 38.7138 0.493736 38.5992 0.497286C38.3624 0.5054 37.7609 0.416655 36.7244 0.220908C35.9186 0.0682654 0.233274 -0.0747415 0.0846885 0.0738437ZM162.373 0.123541C162.143 0.17831 161.715 0.256406 161.42 0.296975C161.126 0.337544 160.643 0.425783 160.349 0.493736C160.054 0.56169 159.694 0.618994 159.548 0.621023C159.401 0.623051 159.314 0.677313 159.354 0.741716C159.398 0.81322 159.326 0.826912 159.168 0.776707C159.025 0.731574 158.845 0.744252 158.766 0.805613C158.593 0.939492 157.21 1.22094 155.945 1.37967C155.652 1.41669 155.383 1.49276 155.348 1.54905C155.313 1.60534 154.552 1.77268 153.658 1.92026C152.763 2.06833 152.054 2.22757 152.083 2.27473C152.113 2.32138 152.042 2.34471 151.927 2.32595C151.812 2.30719 151.665 2.33406 151.6 2.38579C151.534 2.43701 151.239 2.51358 150.945 2.55517C150.65 2.59675 150.329 2.65152 150.23 2.67738C150.132 2.70274 149.864 2.75294 149.635 2.78895C148.775 2.92283 148.507 2.99382 148.336 3.13176C148.199 3.24282 148.181 3.24129 148.251 3.12466C148.3 3.04301 148.283 2.97607 148.213 2.97607C148.145 2.97607 148.088 3.01715 148.088 3.06837C148.088 3.11908 147.539 3.26209 146.868 3.38582C146.196 3.51007 145.592 3.65257 145.525 3.70277C145.458 3.75298 145.256 3.77782 145.076 3.75805C144.896 3.73827 144.723 3.76362 144.692 3.81383C144.661 3.86454 144.52 3.8757 144.379 3.83868C144.203 3.79253 144.149 3.81484 144.207 3.90967C144.259 3.99386 144.209 4.04964 144.077 4.05319C143.622 4.06587 142.79 4.19873 142.352 4.32855L141.895 4.46395L141.866 47.0486L141.838 89.6332L152.463 89.6367L163.087 89.6403V44.8203C163.087 9.03662 163.057 0.00234024 162.938 0.0119755C162.856 0.018568 162.602 0.0687725 162.373 0.123541ZM191.121 10.666C190.597 10.7593 190.015 10.8876 189.827 10.9515C189.64 11.0154 189.439 11.0387 189.381 11.0027C189.323 10.9667 189.276 10.9941 189.276 11.0636C189.276 11.133 189.145 11.1898 188.986 11.1898C188.826 11.1898 188.33 11.2745 187.885 11.3785C187.438 11.4824 186.866 11.5884 186.613 11.6138C186.359 11.6397 186.092 11.7066 186.018 11.7629C185.944 11.8197 185.481 11.9338 184.991 12.0175C184.499 12.1006 183.77 12.2457 183.37 12.34C182.969 12.4338 182.514 12.5256 182.358 12.5438C182.202 12.5621 181.994 12.6113 181.895 12.6529C181.797 12.6945 181.101 12.841 180.348 12.9779C179.595 13.1154 178.899 13.2589 178.8 13.2974C178.702 13.3365 178.501 13.3562 178.354 13.3415C178.206 13.3273 178.086 13.3674 178.086 13.4308C178.086 13.4942 177.631 13.6139 177.074 13.6965C176.518 13.7792 176.062 13.8872 176.062 13.9364C176.062 13.9856 175.902 14.0008 175.705 13.9699C175.509 13.9389 175.348 13.9668 175.348 14.0322C175.348 14.0976 175.254 14.1514 175.14 14.1514C175.025 14.1519 174.664 14.2107 174.336 14.2827C174.009 14.3548 173.527 14.4425 173.265 14.478C173.003 14.513 172.53 14.6164 172.213 14.7077C171.896 14.7985 171.602 14.8664 171.559 14.8578C171.515 14.8497 171.357 14.8928 171.209 14.9542L170.938 15.0657L170.97 43.7031C170.999 68.9489 171.024 72.3664 171.182 72.5601C171.341 72.7553 171.341 72.768 171.182 72.6747C171.041 72.592 171.029 72.6062 171.125 72.7411C171.191 72.8354 171.242 73.1002 171.237 73.3294C171.232 73.5586 171.26 73.7726 171.301 73.8056C171.342 73.838 171.436 74.2402 171.512 74.6981C171.657 75.5739 171.863 76.4405 172.022 76.8412C172.074 76.972 172.23 77.4543 172.368 77.9122C172.507 78.3706 172.648 78.826 172.682 78.9244C172.716 79.0223 172.737 79.1237 172.727 79.149C172.717 79.1744 172.757 79.2282 172.817 79.2682C172.95 79.358 173.444 80.3783 173.444 80.5629C173.444 80.6374 173.514 80.7409 173.601 80.7931C173.687 80.8459 173.883 81.1506 174.036 81.4711C174.189 81.7911 174.459 82.1928 174.635 82.3637C174.811 82.5346 174.93 82.7486 174.898 82.8393C174.866 82.9342 174.894 82.9717 174.966 82.9276C175.094 82.8485 175.574 83.4195 175.544 83.6137C175.534 83.672 175.634 83.779 175.765 83.8515C175.895 83.9241 176.039 84.0397 176.085 84.1081C176.162 84.2258 177.568 85.6427 177.977 86.0144C178.081 86.1087 178.228 86.1858 178.304 86.1858C178.381 86.1858 178.443 86.2396 178.443 86.305C178.443 86.3704 178.504 86.4241 178.578 86.4241C178.652 86.4241 178.813 86.5393 178.935 86.6802C179.057 86.8212 179.157 86.9018 179.157 86.8598C179.157 86.8177 179.251 86.8638 179.366 86.9617C179.48 87.0601 179.618 87.1361 179.672 87.1311C179.726 87.1265 179.871 87.2381 179.993 87.3796C180.116 87.5205 180.268 87.6042 180.331 87.5652C180.395 87.5256 180.465 87.5342 180.486 87.5839C180.545 87.7153 181.531 88.2097 181.735 88.2097C181.831 88.2097 181.877 88.2614 181.838 88.3253C181.799 88.3887 181.916 88.4739 182.099 88.515C182.685 88.6458 183.443 88.9531 183.443 89.0591C183.443 89.1154 183.483 89.1555 183.532 89.1479C183.581 89.1403 183.648 89.1443 183.681 89.157C183.714 89.1697 183.821 89.2001 183.919 89.225C185.403 89.5992 186.039 89.7813 186.215 89.8817C186.333 89.9486 186.483 89.9699 186.548 89.9293C186.614 89.8888 186.756 89.9273 186.864 90.0145C187.003 90.1281 187.034 90.1312 186.97 90.0247C186.921 89.943 186.933 89.8761 186.997 89.8761C187.061 89.8761 187.131 89.9268 187.153 89.9892C187.175 90.0516 187.434 90.1266 187.729 90.156C188.023 90.1859 188.878 90.2762 189.628 90.3573C191.352 90.544 195.057 90.4375 196.24 90.1672C196.698 90.0627 197.221 89.979 197.401 89.9816C197.581 89.9836 197.728 89.9344 197.728 89.8715C197.728 89.8086 197.849 89.7559 197.996 89.7544C198.143 89.7534 198.622 89.6256 199.061 89.4704C199.5 89.3157 199.888 89.2194 199.925 89.2559C199.962 89.2929 200.059 89.2412 200.14 89.1418C200.221 89.0419 200.676 88.8411 201.152 88.695C201.628 88.5495 201.989 88.3847 201.954 88.3294C201.92 88.2741 202.054 88.1935 202.251 88.1499C202.857 88.017 202.85 88.1159 202.845 79.8727L202.84 72.1214L202.456 72.2107C202.246 72.2594 201.979 72.302 201.864 72.3045C201.75 72.307 201.656 72.3572 201.656 72.4166C201.656 72.4754 201.549 72.4957 201.418 72.4617C201.282 72.4257 201.179 72.4582 201.178 72.5368C201.177 72.623 201.138 72.6133 201.074 72.5124C201.011 72.4135 200.954 72.3993 200.927 72.4759C200.792 72.8593 196.45 72.874 196.319 72.4916C196.297 72.4277 196.23 72.4059 196.17 72.4429C196.11 72.48 196.061 72.4445 196.061 72.3643C196.061 72.2837 196.027 72.2528 195.985 72.2944C195.903 72.3765 195.225 72.0367 195.081 71.8415C195.033 71.7761 194.993 71.771 194.992 71.8308C194.987 72.1047 193.911 70.7847 193.617 70.1452C193.519 69.9322 193.388 69.7583 193.327 69.7583C193.233 69.7583 192.996 69.0995 192.919 68.6274C192.909 68.562 192.858 68.4413 192.807 68.3591C192.756 68.2775 192.753 68.1487 192.799 68.0731C192.85 67.9905 192.832 67.9681 192.754 68.0163C192.678 68.063 192.625 68.0087 192.627 67.886C192.628 67.7699 192.565 67.3804 192.485 67.0203C192.381 66.5497 192.326 63.7631 192.289 57.1098L192.236 47.8544H197.482H202.729L202.699 37.2298L202.668 26.6057L197.46 26.5747L192.252 26.5433V18.5096C192.252 14.0905 192.212 10.4804 192.163 10.486C192.114 10.492 191.645 10.5732 191.121 10.666ZM33.5204 21.2916C33.4859 21.3479 33.6431 21.3733 33.8708 21.3484C34.1158 21.321 34.2841 21.355 34.2841 21.4316C34.2841 21.5026 34.3399 21.5259 34.4084 21.4838C34.4763 21.4412 34.597 21.459 34.6761 21.5223C34.7552 21.5857 34.9895 21.674 35.1969 21.7186C35.4049 21.7627 35.7162 21.9306 35.8897 22.0913C36.0631 22.2521 36.2492 22.3566 36.303 22.3231C36.3567 22.2896 36.5672 22.4331 36.7705 22.6416C36.9744 22.8495 37.1407 22.9854 37.1407 22.9433C37.1407 22.9012 37.2751 23.0006 37.4384 23.1644C37.6022 23.3277 37.7361 23.5397 37.7361 23.635C37.7361 23.7303 37.8167 23.8079 37.9146 23.8079C38.013 23.8079 38.0931 23.883 38.0931 23.9737C38.0931 24.065 38.1727 24.17 38.2701 24.2075C38.3669 24.2445 38.4176 24.3505 38.3821 24.4428C38.3466 24.5351 38.4065 24.6447 38.5155 24.6868C38.624 24.7283 38.6844 24.8379 38.6489 24.9302C38.6134 25.0225 38.6621 25.1274 38.7564 25.1639C38.8512 25.2005 38.9182 25.2715 38.905 25.3227C38.8746 25.4413 39.0515 26.2111 39.1448 26.3673C39.2691 26.5747 39.3163 27.6514 39.2306 28.3157C39.1327 29.0687 38.7665 30.4633 38.6803 30.4101C38.6332 30.3807 38.5627 30.4395 38.5236 30.5409C38.4775 30.6616 38.5039 30.6991 38.6007 30.6504C38.6818 30.6094 38.655 30.652 38.5414 30.7453C38.4278 30.8386 38.3614 30.941 38.3938 30.9735C38.4263 31.0054 38.2914 31.2007 38.0941 31.4071C37.8973 31.613 37.7361 31.8168 37.7361 31.8594C37.7361 31.9811 37.0378 32.617 36.9039 32.617C36.838 32.617 36.7837 32.7007 36.7837 32.8026C36.7837 32.9046 36.7386 32.9604 36.6828 32.9259C36.627 32.8914 36.4784 32.9553 36.3522 33.0679C36.0225 33.361 35.2208 33.754 35.0362 33.7129C34.95 33.6937 34.879 33.7292 34.879 33.792C34.879 33.8544 34.7852 33.8904 34.6711 33.8716C34.5565 33.8534 34.3876 33.898 34.2953 33.9716C34.1781 34.0654 32.243 34.1156 27.7778 34.1409L21.4277 34.1764V27.6828V21.1892H27.5055C30.8626 21.1892 33.5554 21.2348 33.5204 21.2916ZM101.423 25.3845C101.39 25.4175 100.828 25.4784 100.173 25.5205C98.9831 25.597 98.3451 25.663 97.6737 25.7796C97.477 25.8136 97.1671 25.8415 96.9846 25.841C96.7705 25.841 96.6823 25.8881 96.7356 25.9738C96.7827 26.0509 96.764 26.0737 96.6899 26.0281C96.6199 25.9845 96.4293 25.9997 96.2665 26.0615C95.9734 26.1731 94.4682 26.5195 93.956 26.5935C93.81 26.6148 93.6224 26.6868 93.5392 26.7538C93.456 26.8207 93.2004 26.9155 92.9712 26.9642C92.742 27.0129 92.3003 27.1747 91.9895 27.3243C91.6781 27.4739 91.424 27.5489 91.424 27.4916C91.424 27.4338 91.3439 27.4176 91.246 27.4551C91.1481 27.4926 91.0929 27.5631 91.1228 27.6118C91.1527 27.66 90.8576 27.7888 90.4671 27.8973C90.0766 28.0058 89.7571 28.1509 89.7571 28.2203C89.7571 28.2893 89.6978 28.3091 89.6248 28.264C89.5522 28.2188 89.4584 28.229 89.4169 28.2868C89.3088 28.4349 88.3286 28.9577 88.3286 28.8669C88.3286 28.8253 88.1815 28.8938 88.0015 29.018C87.8215 29.1428 87.4198 29.3654 87.1085 29.513C86.7976 29.6606 86.543 29.8335 86.543 29.8969C86.543 29.9603 86.4893 29.979 86.4233 29.9385C86.3574 29.8974 86.2712 29.9476 86.2322 30.0495C86.1931 30.1514 86.113 30.2052 86.0547 30.1692C85.9958 30.1327 85.9482 30.1601 85.9482 30.2295C85.9482 30.2985 85.8954 30.3553 85.831 30.3553C85.6464 30.3553 84.3568 31.2078 84.191 31.439C84.1089 31.5541 83.9212 31.6667 83.7742 31.6895C83.6276 31.7118 83.5211 31.7955 83.5373 31.8761C83.5536 31.9563 83.5272 32.0136 83.478 32.0029C83.3031 31.9659 82.9744 32.1677 83.0394 32.2727C83.0754 32.331 83.0216 32.3792 82.9197 32.3792C82.8172 32.3792 82.7341 32.4325 82.7341 32.4984C82.7341 32.5638 82.6783 32.617 82.6108 32.617C82.5429 32.617 82.3324 32.7646 82.1428 32.9446C81.3451 33.7023 81.0246 33.9761 81.1209 33.8189C81.1904 33.7053 81.1792 33.6789 81.0854 33.7368C81.0099 33.7834 80.948 33.8752 80.948 33.9406C80.948 34.0948 79.845 35.1851 79.7279 35.1465C79.6787 35.1303 79.6523 35.1841 79.6685 35.2657C79.6848 35.3479 79.6346 35.4021 79.557 35.3874C79.4789 35.3722 79.3835 35.4589 79.3455 35.5801C79.307 35.7008 79.1604 35.9006 79.0199 36.0239C78.8795 36.1471 78.8039 36.1811 78.8516 36.0989C78.8993 36.0173 78.914 35.9503 78.8835 35.9503C78.8014 35.9503 78.2811 36.8302 78.3054 36.928C78.3171 36.9747 78.2375 36.9788 78.1284 36.9372C77.9793 36.8799 77.9494 36.9098 78.0072 37.0604C78.0574 37.1912 78.0235 37.2597 77.9088 37.2597C77.813 37.2597 77.7339 37.3069 77.7339 37.3637C77.7339 37.421 77.5468 37.6725 77.3176 37.923C77.0883 38.173 76.9007 38.4398 76.9007 38.5158C76.9007 38.5914 76.7547 38.8084 76.5762 38.9981C76.3976 39.1878 76.2501 39.3698 76.2485 39.4028C76.247 39.4352 76.1268 39.6289 75.9818 39.8328C75.8363 40.0367 75.7561 40.2461 75.8033 40.2983C75.8505 40.3501 75.8287 40.3587 75.7556 40.3166C75.677 40.272 75.5046 40.4616 75.3388 40.774C75.1836 41.0671 75.0102 41.307 74.9539 41.307C74.8976 41.307 74.8824 41.3876 74.9199 41.486C74.9579 41.5839 74.9453 41.6645 74.892 41.6645C74.8018 41.6645 74.6582 41.9231 74.2647 42.7954C74.1765 42.9916 74.0725 43.1793 74.0345 43.2117C73.9168 43.3137 73.5674 44.0738 73.5674 44.2295C73.5674 44.3106 73.4812 44.41 73.3757 44.4506C73.2535 44.4973 73.2064 44.6109 73.2454 44.761C73.2794 44.8908 73.25 44.9973 73.1795 44.9973C73.1095 44.9973 73.0872 45.0328 73.1303 45.0759C73.1734 45.119 73.1445 45.2311 73.0664 45.3254C72.9878 45.4197 72.9067 45.6094 72.8859 45.7468C72.8651 45.8842 72.7631 46.0901 72.6602 46.2037C72.5573 46.3178 72.5101 46.4715 72.5557 46.545C72.6014 46.6185 72.5446 46.7828 72.43 46.9096C72.3154 47.0364 72.2581 47.1404 72.3037 47.1404C72.3488 47.1404 72.3321 47.2398 72.2672 47.362C72.2018 47.4837 72.1166 47.7651 72.0775 47.9867C72.039 48.2089 71.9411 48.4974 71.86 48.6282C71.7788 48.7591 71.721 48.9868 71.7312 49.1343C71.7413 49.2814 71.7154 49.4021 71.6739 49.4021C71.5983 49.4021 71.3909 50.2211 71.2367 51.1283C71.1921 51.39 71.1135 51.6583 71.0623 51.7237C71.0105 51.7896 70.9801 52.0137 70.9948 52.2222C71.009 52.4306 70.972 52.5711 70.9117 52.5341C70.8493 52.495 70.826 52.6989 70.8574 53.0133C70.8873 53.314 70.867 53.5321 70.8123 53.4981C70.757 53.4641 70.7159 53.5599 70.7205 53.7106C70.7245 53.8617 70.6718 54.9474 70.6033 56.1234C70.5344 57.2994 70.5014 58.4511 70.5308 58.6828C70.5597 58.9146 70.6125 59.7468 70.648 60.5323C70.6835 61.3178 70.7367 62.0871 70.7666 62.2408C70.8366 62.6034 70.9674 63.576 70.9771 63.8062C70.9811 63.9041 71.0242 64.0116 71.0724 64.0441C71.1206 64.077 71.1926 64.3448 71.2327 64.6394C71.2722 64.9341 71.3554 65.3499 71.4167 65.5639C71.5476 66.0193 71.544 65.9975 71.544 66.3129C71.544 66.4478 71.5861 66.532 71.6373 66.5C71.6891 66.4686 71.7372 66.532 71.7448 66.642C71.7601 66.8586 72.1044 68.1588 72.2231 68.4489C72.2631 68.5468 72.2875 68.6675 72.2773 68.7166C72.2667 68.7658 72.3103 68.8059 72.3737 68.8059C72.4371 68.8059 72.4604 68.8794 72.4264 68.9692C72.3919 69.059 72.4406 69.2091 72.5344 69.3029C72.6282 69.3972 72.7449 69.6584 72.7936 69.884C72.8423 70.1092 72.9538 70.4343 73.0415 70.6062C73.1293 70.7776 73.1673 70.952 73.1262 70.9931C73.0852 71.0342 73.1141 71.0676 73.1906 71.0676C73.2672 71.0676 73.3296 71.1746 73.3296 71.3055C73.3296 71.4368 73.3768 71.5438 73.4351 71.5438C73.4929 71.5438 73.6303 71.8248 73.7409 72.1686C73.8509 72.5124 74.0167 72.8522 74.109 72.9242C74.2013 72.9957 74.3768 73.2766 74.498 73.5485C74.6197 73.8203 74.7576 74.0044 74.8048 73.9572C74.8514 73.9105 74.854 73.9658 74.8099 74.0799C74.7561 74.2209 74.8327 74.3832 75.0482 74.583C75.2237 74.7452 75.3337 74.9314 75.2936 74.9963C75.2531 75.0617 75.2769 75.1149 75.3464 75.1149C75.4154 75.1149 75.4722 75.1895 75.4722 75.2808C75.4722 75.372 75.5528 75.4775 75.6507 75.5151C75.749 75.5526 75.8297 75.6657 75.8297 75.7661C75.8297 75.866 75.8794 75.9481 75.9402 75.9481C76.0016 75.9481 76.0893 76.0688 76.1355 76.2159C76.1816 76.3635 76.3322 76.6236 76.4707 76.7945C76.6091 76.9659 76.8028 77.2266 76.9007 77.3741C76.9991 77.5217 77.2537 77.825 77.4661 78.0476C77.6791 78.2702 77.8531 78.504 77.8531 78.5674C77.8531 78.6303 78.0407 78.8747 78.2699 79.111C78.4991 79.3468 78.6863 79.5872 78.6863 79.6445C78.6863 79.7023 78.7928 79.8058 78.9221 79.8752C79.0519 79.9447 79.2263 80.1298 79.309 80.2865C79.3922 80.4437 79.6594 80.7297 79.9028 80.9224C80.1463 81.1151 80.3151 81.3033 80.2786 81.3398C80.2421 81.3768 80.3745 81.4904 80.5727 81.5934C80.7715 81.6958 81.0175 81.8991 81.1194 82.0452C81.2218 82.1912 81.3055 82.2744 81.3055 82.2298C81.3055 82.1857 81.4308 82.2673 81.5839 82.4118C81.7371 82.5559 82.0606 82.8348 82.3035 83.031C82.5464 83.2278 82.869 83.5087 83.0211 83.6563C83.1727 83.8034 83.333 83.9241 83.3776 83.9241C83.4739 83.9241 83.73 84.1249 84.0977 84.4895C84.2468 84.6366 84.4187 84.7573 84.4811 84.7573C84.543 84.7573 84.7113 84.8673 84.8558 85.0017C84.9999 85.1356 85.1652 85.2162 85.223 85.1807C85.2803 85.1452 85.3564 85.1903 85.3914 85.2811C85.4264 85.3724 85.6703 85.5418 85.934 85.6584C86.1972 85.7745 86.3848 85.9155 86.3503 85.9713C86.3158 86.0271 86.3315 86.0656 86.3853 86.057C86.5694 86.0271 87.0192 86.2132 87.0192 86.3187C87.0192 86.3765 87.1019 86.4241 87.2028 86.4241C87.3037 86.4241 87.4994 86.5291 87.6374 86.6579C87.7758 86.7867 87.934 86.8638 87.9898 86.8293C88.0451 86.7948 88.0907 86.8151 88.0907 86.874C88.0907 86.9323 88.3823 87.0793 88.7388 87.2005C89.0948 87.3217 89.3636 87.4582 89.3352 87.5043C89.2891 87.5788 89.6303 87.7391 89.9356 87.7858C90.0016 87.7959 90.1887 87.8775 90.3525 87.9673C90.5163 88.0571 90.6638 88.121 90.6806 88.1083C90.782 88.0337 91.2901 88.2558 91.2323 88.3492C91.1938 88.412 91.2344 88.4516 91.3226 88.4369C91.4108 88.4222 91.564 88.4399 91.6619 88.477C91.7602 88.514 91.9479 88.584 92.0787 88.6332C92.2095 88.6818 92.3703 88.7305 92.4357 88.7407C92.5011 88.7508 92.6487 88.7959 92.7633 88.8411C93.455 89.1154 93.6817 89.1793 93.9535 89.1778C94.0681 89.1773 94.1619 89.2219 94.1619 89.2772C94.1619 89.3325 94.6843 89.4704 95.3222 89.5835C95.9607 89.6966 96.5368 89.8294 96.6022 89.8791C96.6676 89.9283 96.8552 89.9582 97.019 89.9456C97.1823 89.9324 97.3826 89.9709 97.4638 90.0313C97.5449 90.0916 97.6905 90.1104 97.7873 90.0734C97.8842 90.0358 97.9881 90.045 98.0175 90.0931C98.0475 90.1418 98.2503 90.1946 98.4679 90.2103C98.6859 90.2265 99.3193 90.2914 99.8756 90.3543C101.711 90.5627 106.183 90.4623 107.911 90.1738C108.042 90.152 108.353 90.1296 108.603 90.1241C108.852 90.1185 109.03 90.0713 108.997 90.0191C108.965 89.9664 109.055 89.9156 109.198 89.9055C109.341 89.8959 109.834 89.8026 110.292 89.6986C111.189 89.4952 111.226 89.4876 111.991 89.3446C112.271 89.2924 112.527 89.2057 112.56 89.1514C112.594 89.0977 112.7 89.0835 112.795 89.1205C112.892 89.157 112.97 89.1347 112.97 89.0703C112.97 88.981 113.546 88.7843 113.715 88.8162C113.731 88.8193 113.901 88.7402 114.093 88.6408C114.284 88.5414 114.485 88.4871 114.539 88.5201C114.593 88.5535 114.637 88.5206 114.637 88.4475C114.637 88.3745 114.697 88.3512 114.769 88.3963C114.842 88.4415 114.936 88.4273 114.978 88.3654C115.02 88.3035 115.455 88.1052 115.946 87.9252C116.438 87.7447 116.92 87.5297 117.018 87.447C117.116 87.3643 117.384 87.2239 117.613 87.1346C117.842 87.0459 118.056 86.9424 118.089 86.9054C118.122 86.8679 118.416 86.7071 118.744 86.5474C119.071 86.3881 119.433 86.1797 119.547 86.0844C119.662 85.989 119.756 85.948 119.756 85.9936C119.756 86.0387 119.865 85.9738 120 85.8491C120.133 85.7243 120.441 85.5215 120.684 85.3982C120.927 85.275 121.143 85.134 121.164 85.0859C121.186 85.0372 121.386 84.9109 121.61 84.8049C121.833 84.6989 121.988 84.5681 121.955 84.5149C121.922 84.4611 122.014 84.3795 122.159 84.3333C122.304 84.2877 122.486 84.1898 122.564 84.1168C122.878 83.8206 123.208 83.5731 123.208 83.6335C123.208 83.669 123.335 83.5615 123.49 83.3946C123.644 83.2273 123.829 83.0909 123.899 83.0909C123.97 83.0909 124.098 82.9935 124.183 82.8748C124.269 82.7562 124.511 82.5335 124.721 82.3799C124.931 82.2262 125.079 82.0614 125.049 82.0132C125.02 81.9656 125.134 81.8358 125.304 81.7247C125.665 81.4879 127.491 79.677 127.498 79.5482C127.501 79.4995 127.662 79.3286 127.856 79.1678C128.049 79.0076 128.208 78.8062 128.208 78.7215C128.208 78.6369 128.255 78.5674 128.313 78.5674C128.371 78.5674 128.448 78.4548 128.484 78.3169C128.519 78.1794 128.598 78.0973 128.658 78.1343C128.718 78.1713 128.842 78.0562 128.933 77.8787C129.025 77.7007 129.167 77.5126 129.249 77.4603C129.331 77.4076 129.398 77.3001 129.398 77.221C129.398 77.1419 129.507 77.0085 129.641 76.9253C129.774 76.8422 129.851 76.722 129.812 76.6586C129.773 76.5952 129.798 76.5435 129.867 76.5435C129.936 76.5435 129.993 76.4613 129.993 76.3609C129.993 76.261 130.078 76.1464 130.181 76.1069C130.346 76.0435 130.541 75.7088 130.57 75.438C130.575 75.3868 130.649 75.2681 130.733 75.1743C131.101 74.765 131.165 74.6595 131.088 74.583C131.044 74.5383 131.101 74.4491 131.217 74.3847C131.333 74.3198 131.396 74.2168 131.358 74.1555C131.32 74.0941 131.345 74.0434 131.415 74.0434C131.484 74.0434 131.541 73.9633 131.541 73.8649C131.541 73.767 131.65 73.5774 131.783 73.444C131.917 73.3106 131.994 73.1499 131.955 73.087C131.916 73.0236 131.935 72.9724 131.998 72.9724C132.061 72.9724 132.207 72.7071 132.324 72.3831C132.441 72.0591 132.574 71.8177 132.62 71.8461C132.666 71.875 132.732 71.7918 132.766 71.6615C132.8 71.5311 132.78 71.4541 132.722 71.4901C132.663 71.5266 132.648 71.4708 132.688 71.3663C132.728 71.2619 132.79 71.2061 132.827 71.2421C132.886 71.3014 133.112 70.7872 133.294 70.1746C133.333 70.0438 133.421 69.8998 133.49 69.8541C133.559 69.809 133.621 69.6482 133.628 69.4971C133.635 69.346 133.706 69.1021 133.786 68.9545C133.865 68.8074 133.903 68.6867 133.871 68.6867C133.838 68.6867 133.914 68.4453 134.041 68.1507C134.167 67.8556 134.288 67.494 134.307 67.3469C134.328 67.1999 134.38 67.0224 134.424 66.9524C134.506 66.8221 134.538 66.678 134.767 65.3834C134.839 64.9741 134.953 64.6394 135.019 64.6394C135.086 64.6394 135.114 64.5056 135.083 64.3418C135.052 64.178 135.061 64.0441 135.103 64.0441C135.146 64.0441 135.183 63.9503 135.187 63.8357C135.194 63.6095 135.315 62.6845 135.425 62.0202C135.616 60.8619 135.605 55.7248 135.408 53.9256C135.297 52.9108 135.203 52.0132 135.199 51.9316C135.195 51.8499 135.141 51.783 135.08 51.783C135.018 51.783 134.998 51.7044 135.035 51.6081C135.072 51.5122 135.058 51.4062 135.005 51.3733C134.951 51.3403 134.873 51.0573 134.832 50.7444C134.708 49.8118 134.362 48.4497 134.249 48.4497C134.191 48.4497 134.18 48.3356 134.224 48.1967C134.278 48.0263 134.261 47.9705 134.172 48.0253C134.093 48.0745 134.041 48.0116 134.041 47.8655C134.041 47.505 133.686 46.5171 133.463 46.257C133.355 46.1307 133.335 46.0678 133.419 46.117C133.503 46.1662 133.464 46.0171 133.332 45.7803C133.2 45.546 133.129 45.3548 133.174 45.3548C133.219 45.3548 133.191 45.2904 133.112 45.2118C133.033 45.1332 132.97 44.9724 132.97 44.8548C132.97 44.7366 132.927 44.6403 132.876 44.6403C132.824 44.6403 132.773 44.5236 132.762 44.3806C132.751 44.2376 132.666 44.0774 132.572 44.0251C132.478 43.9724 132.331 43.6909 132.245 43.3999C132.159 43.1083 132.036 42.9024 131.973 42.9414C131.907 42.9825 131.889 42.9298 131.932 42.8182C131.973 42.7112 131.94 42.555 131.858 42.4713C131.583 42.1879 131.187 41.4632 131.265 41.3851C131.307 41.342 131.285 41.307 131.214 41.307C131.143 41.307 130.972 41.0707 130.832 40.7821C130.692 40.4936 130.5 40.2273 130.407 40.1913C130.302 40.1513 130.266 40.0473 130.313 39.9231C130.362 39.7953 130.344 39.7496 130.264 39.7988C130.144 39.8734 129.934 39.564 129.975 39.3729C129.985 39.3237 129.94 39.2836 129.874 39.2836C129.809 39.2836 129.755 39.206 129.755 39.1117C129.755 39.0174 129.662 38.8698 129.547 38.7841C129.236 38.5518 128.683 37.7764 128.769 37.6913C128.809 37.6502 128.76 37.6167 128.659 37.6167C128.558 37.6167 128.409 37.457 128.327 37.2612C128.246 37.0655 128.133 36.9351 128.075 36.9706C128.017 37.0066 127.969 36.9433 127.969 36.8302C127.969 36.7176 127.934 36.6603 127.891 36.7034C127.813 36.781 127.436 36.3312 127.435 36.1587C127.434 36.1096 127.395 36.0685 127.347 36.0675C127.223 36.0644 126.698 35.5477 126.736 35.4655C126.776 35.3773 126.41 35.0644 126.149 34.9645C126.037 34.9214 125.946 34.8042 125.946 34.7043C125.946 34.6039 125.865 34.5218 125.767 34.5218C125.669 34.5218 125.589 34.4711 125.589 34.4087C125.589 34.2768 125.008 33.6292 124.89 33.6292C124.765 33.6292 124.114 33.0937 124.233 33.0897C124.291 33.0876 124.147 32.967 123.912 32.8219C123.467 32.5466 122.913 32.1135 122.168 31.4568C121.927 31.2438 121.658 31.0698 121.571 31.0698C121.483 31.0698 121.271 30.9223 121.099 30.7422C120.928 30.5622 120.832 30.4953 120.886 30.5936C120.94 30.6915 120.842 30.6423 120.668 30.4836C120.493 30.3249 120.351 30.2311 120.351 30.2752C120.351 30.3193 120.244 30.2483 120.113 30.1175C119.982 29.9861 119.795 29.8791 119.696 29.8791C119.598 29.8791 119.518 29.8375 119.518 29.7868C119.518 29.7361 119.281 29.589 118.992 29.4607C118.704 29.3319 118.498 29.1773 118.536 29.1164C118.574 29.0551 118.516 29.0393 118.406 29.0814C118.297 29.1235 118.208 29.1058 118.208 29.0424C118.208 28.979 118.154 28.9268 118.089 28.9268C118.023 28.9268 117.691 28.7929 117.352 28.6291C117.013 28.4658 116.662 28.3319 116.572 28.3319C116.482 28.3319 116.442 28.2782 116.482 28.2127C116.523 28.1473 116.486 28.0854 116.4 28.0753C116.118 28.0428 116.01 28.0134 115.649 27.8704C115.13 27.6656 115 27.623 114.917 27.6311C114.876 27.6346 114.809 27.5895 114.769 27.5307C114.701 27.4308 113.802 27.1275 113.06 26.9541C112.88 26.912 112.732 26.8258 112.732 26.7634C112.732 26.7005 112.625 26.6833 112.494 26.7249C112.348 26.771 112.256 26.7462 112.256 26.6605C112.256 26.5834 112.182 26.5489 112.093 26.5834C112.002 26.6179 111.787 26.5727 111.613 26.4825C111.44 26.3927 111.286 26.3217 111.271 26.3252C111.149 26.3531 109.983 26.1254 109.698 26.0179C109.501 25.9429 109.192 25.8896 109.012 25.8988C108.832 25.9079 108.685 25.8699 108.685 25.8141C108.685 25.7583 108.645 25.7228 108.596 25.735C108.546 25.7471 108.185 25.7182 107.792 25.6706C106.438 25.5073 105.999 25.4779 103.744 25.4018C102.5 25.3597 101.456 25.3521 101.423 25.3845ZM105.308 47.8072C105.915 47.9213 106.382 48.0628 106.346 48.1211C106.31 48.1799 106.353 48.2129 106.441 48.1952C106.53 48.1779 106.762 48.2474 106.959 48.3498C107.155 48.4528 107.53 48.6054 107.792 48.6886C108.054 48.7723 108.312 48.9137 108.364 49.0035C108.417 49.0928 108.645 49.2434 108.87 49.3377C109.096 49.432 109.28 49.5654 109.28 49.6338C109.28 49.7028 109.364 49.7591 109.466 49.7591C109.568 49.7591 109.62 49.8088 109.583 49.8697C109.545 49.9305 109.634 50.0177 109.779 50.0639C110.1 50.1658 110.946 51.0249 110.946 51.249C110.946 51.3373 111.108 51.5244 111.305 51.6649C111.502 51.8053 111.635 51.9671 111.6 52.0239C111.564 52.0812 111.634 52.1811 111.755 52.246C111.958 52.3545 112.146 52.6984 112.511 53.6279C112.589 53.8242 112.643 54.0255 112.633 54.0742C112.622 54.1234 112.676 54.1639 112.752 54.1639C112.828 54.1639 112.856 54.1989 112.813 54.242C112.77 54.2851 112.782 54.3789 112.841 54.4504C113.457 55.203 113.6 59.0586 113.076 60.7828C113.014 60.9862 112.94 61.2727 112.912 61.4197C112.884 61.5673 112.798 61.7626 112.722 61.8538C112.646 61.9456 112.622 62.0202 112.667 62.0202C112.712 62.0202 112.639 62.1606 112.504 62.3321C112.369 62.5035 112.289 62.6911 112.324 62.7489C112.36 62.8062 112.329 62.8539 112.256 62.8539C112.183 62.8539 112.156 62.9076 112.197 62.9736C112.238 63.0395 112.188 63.1257 112.086 63.1647C111.984 63.2038 111.927 63.2783 111.959 63.3301C111.991 63.3818 111.929 63.4579 111.822 63.4989C111.715 63.54 111.66 63.6069 111.701 63.6475C111.741 63.6881 111.612 63.9143 111.414 64.1506C111.215 64.3864 110.962 64.6896 110.851 64.824C110.74 64.9579 110.556 65.1034 110.441 65.1476C110.326 65.1912 110.232 65.2966 110.232 65.3813C110.232 65.466 110.019 65.6674 109.759 65.8281C109.498 65.9894 109.259 66.1892 109.227 66.2729C109.195 66.3565 109.089 66.425 108.992 66.425C108.895 66.425 108.773 66.4929 108.721 66.5766C108.635 66.713 108 67.1725 107.852 67.2059C107.752 67.2283 107.333 67.3895 107.018 67.5259C106.855 67.5969 106.667 67.6598 106.602 67.6659C106.536 67.6715 106.363 67.744 106.217 67.8277C106.07 67.9108 105.722 68.0082 105.443 68.0442C105.163 68.0797 104.756 68.1558 104.537 68.2131C104.187 68.3039 101.888 68.2714 101.245 68.1659C100.41 68.029 100.031 67.922 99.8609 67.7739C99.7544 67.6811 99.6205 67.6162 99.5632 67.6294C99.5059 67.6431 99.2985 67.5827 99.1023 67.4955C98.9055 67.4088 98.7067 67.3332 98.6596 67.3277C98.6124 67.3221 98.4653 67.2247 98.332 67.1106C98.1991 66.9965 98.0896 66.9433 98.0885 66.9914C98.0875 67.0401 98.047 67.0234 97.9993 66.9544C97.9511 66.8854 97.7077 66.7343 97.4582 66.6182C97.2087 66.5021 96.9749 66.3307 96.9394 66.2374C96.9034 66.144 96.7995 66.068 96.7087 66.068C96.6174 66.068 96.5429 66.0228 96.5429 65.9681C96.5429 65.9128 96.409 65.8068 96.2452 65.7323C96.0814 65.6577 95.9475 65.5233 95.9475 65.4341C95.9475 65.2343 95.5398 64.8489 95.4368 64.9513C95.3958 64.9924 95.27 64.8316 95.1569 64.5943C95.0438 64.3575 94.8942 64.1627 94.8242 64.1622C94.6686 64.1612 94.1619 63.2956 94.1619 63.0314C94.1619 62.9259 94.1143 62.8691 94.0565 62.9046C93.9987 62.9406 93.8845 62.7961 93.8034 62.5846C93.4778 61.7367 93.3861 61.5445 93.3064 61.5445C93.2608 61.5445 93.2436 61.437 93.2689 61.3062C93.2943 61.1753 93.2588 61.0683 93.1898 61.0683C93.1213 61.0683 93.095 60.9907 93.131 60.8954C93.1675 60.8006 93.1137 60.5551 93.0113 60.3497C92.6259 59.5774 92.6969 55.7689 93.1056 55.2765C93.1741 55.1939 93.1954 55.0706 93.1533 55.0022C93.1112 54.9337 93.136 54.8779 93.2096 54.8779C93.2826 54.8779 93.3115 54.8282 93.274 54.7669C93.2365 54.706 93.2603 54.6229 93.3267 54.5813C93.3932 54.5402 93.4474 54.4038 93.4474 54.278C93.4474 53.9286 93.8161 53.0853 93.9363 53.1598C94.0347 53.2202 94.0554 53.1685 94.092 52.7729C94.0996 52.6953 94.2253 52.494 94.3719 52.3256C94.5179 52.1568 94.6381 51.9727 94.6381 51.9154C94.6381 51.8586 94.7583 51.7227 94.9059 51.6131C95.0529 51.5041 95.0935 51.4478 94.9951 51.4884C94.8968 51.5289 94.9206 51.4782 95.0474 51.3748C95.1747 51.2718 95.2284 51.1856 95.1665 51.1836C95.1052 51.1811 95.1701 51.1141 95.3111 51.0345C95.4526 50.9549 95.7665 50.6628 96.0089 50.3854C96.2518 50.1075 96.4962 49.9087 96.552 49.9437C96.6083 49.9782 96.7219 49.897 96.8055 49.7637C96.8887 49.6303 97.0003 49.5213 97.0525 49.5213C97.1052 49.5213 97.2893 49.3899 97.4623 49.2297C97.6352 49.0694 97.8198 48.9655 97.872 48.9979C97.9247 49.0304 98.086 48.9472 98.23 48.8128C98.3741 48.6784 98.5855 48.5689 98.6991 48.5689C98.8132 48.5689 98.9927 48.4827 99.0977 48.3772C99.2032 48.2722 99.4212 48.1784 99.5825 48.1688C99.7438 48.1597 99.8756 48.1206 99.8756 48.0816C99.8756 48.0014 100.864 47.7697 101.661 47.6622C101.956 47.6226 102.21 47.5785 102.226 47.5643C102.33 47.472 104.392 47.6348 105.308 47.8072ZM38.0865 55.5225C38.3771 55.5697 38.8264 55.7106 39.0845 55.8354C39.3426 55.9601 39.6002 56.0337 39.657 55.9987C39.7133 55.9637 39.7605 55.9784 39.761 56.0316C39.762 56.0844 39.976 56.2304 40.2372 56.3552C40.4983 56.4804 40.7123 56.6605 40.7123 56.7548C40.7123 56.8618 40.7823 56.9003 40.8969 56.8562C41.0029 56.8156 41.0506 56.8354 41.009 56.9029C40.9689 56.9678 40.9847 57.0205 41.044 57.0205C41.2073 57.0205 41.7281 57.5078 41.6941 57.6291C41.6779 57.6874 41.7448 57.735 41.8432 57.735C41.9411 57.735 42.0217 57.8086 42.0217 57.8988C42.0217 57.9891 42.1013 58.1291 42.1987 58.2102C42.2966 58.2908 42.3468 58.4049 42.3103 58.4633C42.2743 58.5221 42.328 58.6017 42.4299 58.6413C42.5319 58.6803 42.5892 58.7543 42.5572 58.8061C42.5253 58.8578 42.5719 58.9283 42.6612 58.9628C42.7504 58.9967 42.8519 59.1499 42.8869 59.3025C42.9219 59.4552 43.0431 59.9014 43.1566 60.2945C43.362 61.0044 43.4351 62.5232 43.2915 63.0917C43.1217 63.7641 42.6815 64.824 42.5354 64.9133C42.4492 64.9655 42.3787 65.0755 42.3787 65.1577C42.3787 65.391 41.8316 66.0751 41.7235 65.9767C41.6703 65.9285 41.6612 65.9858 41.7038 66.104C41.7606 66.2612 41.686 66.3722 41.4259 66.5203C41.2306 66.6314 41.0704 66.7896 41.0699 66.8712C41.0699 66.9534 41.0126 67.0203 40.9431 67.0203C40.8741 67.0203 40.8569 66.9534 40.9056 66.8712C40.9537 66.7896 40.8148 66.8946 40.5967 67.105C40.3782 67.3155 40.154 67.46 40.0987 67.4255C40.0435 67.391 39.9978 67.423 39.9978 67.4965C39.9978 67.5695 39.9461 67.5974 39.8832 67.5584C39.8203 67.5193 39.6717 67.5848 39.5531 67.7029C38.9709 68.2851 38.4962 68.315 29.6709 68.3257L21.4277 68.3358V61.8412V55.3465L29.4924 55.3911C33.9281 55.416 37.7954 55.4748 38.0865 55.5225ZM102.019 97.887C101.986 97.921 101.691 97.9778 101.364 98.0128C100.555 98.0995 99.8706 98.2572 99.546 98.4317C99.3974 98.5118 99.2149 98.5397 99.1408 98.4935C99.0653 98.4469 99.0384 98.4631 99.08 98.53C99.1205 98.5965 98.9385 98.7141 98.6717 98.7942C98.4065 98.8739 97.8857 99.1497 97.515 99.4068C97.1438 99.6645 96.8 99.8754 96.7508 99.8754C96.7016 99.8754 96.447 100.103 96.1853 100.381C95.9237 100.659 95.7092 100.842 95.7092 100.789C95.7092 100.735 95.629 100.772 95.5307 100.87C95.4328 100.969 95.3521 101.083 95.3521 101.125C95.3521 101.167 95.1645 101.378 94.9358 101.594C94.7066 101.81 94.5189 102.047 94.5189 102.121C94.5189 102.196 94.4652 102.256 94.3998 102.256C94.3344 102.256 94.2923 102.296 94.306 102.346C94.3404 102.47 94.0027 103.076 93.8942 103.083C93.845 103.087 93.8171 103.103 93.8328 103.119C93.848 103.136 93.7471 103.336 93.6077 103.566C93.4682 103.795 93.3176 104.156 93.2725 104.369C93.2273 104.582 93.1431 104.756 93.0848 104.756C93.0265 104.756 93.0098 104.837 93.0473 104.935C93.0853 105.033 93.0534 105.113 92.9773 105.113C92.9007 105.113 92.8678 105.161 92.9043 105.22C92.9403 105.278 92.8865 105.56 92.7846 105.845C92.4099 106.892 92.4778 111.251 92.8723 111.494C92.9291 111.529 92.9444 111.608 92.9068 111.669C92.8693 111.73 92.8901 111.78 92.9535 111.78C93.0164 111.78 93.0402 111.887 93.0057 112.018C92.9717 112.149 92.9971 112.256 93.0625 112.256C93.165 112.256 93.3069 112.578 93.308 112.811C93.308 112.851 93.3556 112.917 93.4134 112.957C93.4713 112.997 93.5859 113.259 93.6675 113.539C93.7491 113.819 93.8617 114.02 93.917 113.986C94.0088 113.93 94.1117 114.077 94.1442 114.312C94.1584 114.414 94.3298 114.638 94.7274 115.07C94.8744 115.23 94.9951 115.398 94.9951 115.441C94.9951 115.575 96.336 116.788 96.84 117.11C97.1022 117.277 97.37 117.486 97.4354 117.574C97.5008 117.663 97.6763 117.758 97.8249 117.786C97.9734 117.815 98.2412 117.939 98.4202 118.063C98.937 118.421 99.0881 118.497 99.0014 118.356C98.9522 118.277 99.0115 118.253 99.1601 118.292C99.2904 118.326 99.3675 118.401 99.332 118.46C99.296 118.518 99.4212 118.565 99.6109 118.565C99.8001 118.565 99.9923 118.602 100.037 118.647C100.083 118.693 100.239 118.747 100.385 118.768C100.53 118.789 100.941 118.859 101.297 118.924C102.603 119.161 106.483 118.893 106.483 118.565C106.483 118.556 106.617 118.523 106.78 118.493C106.944 118.464 107.094 118.39 107.115 118.33C107.136 118.271 107.238 118.254 107.343 118.294C107.459 118.339 107.504 118.319 107.457 118.243C107.411 118.17 107.596 118.058 107.906 117.971C108.195 117.89 108.462 117.746 108.498 117.651C108.534 117.557 108.618 117.512 108.684 117.552C108.75 117.594 108.804 117.582 108.804 117.528C108.804 117.473 108.992 117.328 109.221 117.205C109.449 117.081 109.637 116.932 109.637 116.873C109.637 116.814 109.685 116.795 109.743 116.831C109.801 116.867 109.934 116.767 110.038 116.609C110.141 116.451 110.333 116.287 110.464 116.246C110.594 116.205 110.818 115.962 110.961 115.708C111.105 115.453 111.271 115.255 111.331 115.268C111.392 115.281 111.577 115.037 111.742 114.726C111.908 114.415 112.091 114.16 112.15 114.16C112.208 114.16 112.256 114.08 112.256 113.982C112.256 113.884 112.31 113.803 112.375 113.803C112.44 113.803 112.487 113.763 112.478 113.714C112.452 113.56 112.78 112.851 112.878 112.851C112.928 112.851 112.97 112.722 112.97 112.563C112.97 112.405 113.022 112.258 113.084 112.236C113.147 112.214 113.291 111.661 113.406 111.006C113.519 110.351 113.657 109.785 113.711 109.747C113.843 109.655 113.808 107.273 113.673 107.189C113.614 107.153 113.566 106.996 113.566 106.84C113.566 106.451 113.119 104.613 113.004 104.528C112.865 104.425 112.375 103.348 112.375 103.146C112.375 103.049 112.313 102.971 112.236 102.971C112.16 102.971 112.132 102.936 112.175 102.893C112.217 102.851 112.16 102.748 112.046 102.665C111.932 102.581 111.838 102.469 111.836 102.415C111.826 102.093 109.923 100.054 109.632 100.054C109.565 100.054 109.471 100.001 109.425 99.9353C109.271 99.7202 108.215 99.0483 107.909 98.9717C107.746 98.9307 107.582 98.849 107.546 98.7912C107.51 98.7329 107.373 98.6852 107.243 98.6852C107.093 98.6852 107.036 98.634 107.089 98.5478C107.143 98.4606 107.122 98.4428 107.032 98.4986C106.953 98.5468 106.824 98.5361 106.745 98.4748C106.302 98.1289 102.268 97.6279 102.019 97.887Z" fill="#3252C3"/>
<path fill-rule="evenodd" clip-rule="evenodd" d="M45.1827 2.8671C45.2801 3.02431 45.7122 3.23831 45.7112 3.12877C45.7107 3.07755 45.5768 2.97359 45.4135 2.89753C45.2502 2.82197 45.1462 2.80827 45.1827 2.8671ZM141.808 47.0441C141.792 70.3973 141.819 89.5298 141.868 89.5602C141.948 89.6099 141.948 61.1044 141.868 19.9392C141.851 11.4932 141.824 23.6903 141.808 47.0441ZM56.0685 12.6184C56.2085 12.8147 56.35 12.9755 56.3824 12.9755C56.4154 12.9755 56.3276 12.8147 56.1877 12.6184C56.0477 12.4217 55.9067 12.2609 55.8738 12.2609C55.8413 12.2609 55.9291 12.4217 56.0685 12.6184ZM79.7706 35.1243C79.6144 35.2546 79.5115 35.3865 79.5424 35.4174C79.5729 35.4478 79.724 35.3398 79.8776 35.176C80.2113 34.8205 80.1637 34.7972 79.7706 35.1243ZM192.308 56.4851C192.308 61.2646 192.323 63.2023 192.341 60.7915C192.359 58.3807 192.359 54.4703 192.341 52.1015C192.323 49.7328 192.308 51.7055 192.308 56.4851ZM110.187 50.3875C110.228 50.5041 110.375 50.6578 110.515 50.7293C110.732 50.8408 110.743 50.8363 110.595 50.6963C110.5 50.6066 110.352 50.4524 110.268 50.3545C110.133 50.1988 110.123 50.2034 110.187 50.3875ZM25.3261 55.4434C27.5031 55.4617 31.0656 55.4617 33.2427 55.4434C35.4192 55.4252 33.6382 55.4105 29.2841 55.4105C24.9305 55.4105 23.149 55.4252 25.3261 55.4434ZM43.3637 61.9016C43.3637 62.1962 43.387 62.3164 43.4154 62.1693C43.4438 62.0218 43.4438 61.7809 43.4154 61.6338C43.387 61.4862 43.3637 61.6069 43.3637 61.9016ZM197.817 72.8183C197.965 72.8467 198.206 72.8467 198.353 72.8183C198.5 72.7899 198.38 72.7665 198.085 72.7665C197.79 72.7665 197.67 72.7899 197.817 72.8183Z" fill="#38D484"/>
<path fill-rule="evenodd" clip-rule="evenodd" d="M45.1827 2.8671C45.2801 3.02431 45.7122 3.23831 45.7112 3.12877C45.7107 3.07755 45.5768 2.97359 45.4135 2.89753C45.2502 2.82197 45.1462 2.80827 45.1827 2.8671ZM141.808 47.0441C141.792 70.3973 141.819 89.5298 141.868 89.5602C141.948 89.6099 141.948 61.1044 141.868 19.9392C141.851 11.4932 141.824 23.6903 141.808 47.0441ZM56.0685 12.6184C56.2085 12.8147 56.35 12.9755 56.3824 12.9755C56.4154 12.9755 56.3276 12.8147 56.1877 12.6184C56.0477 12.4217 55.9067 12.2609 55.8738 12.2609C55.8413 12.2609 55.9291 12.4217 56.0685 12.6184ZM79.7706 35.1243C79.6144 35.2546 79.5115 35.3865 79.5424 35.4174C79.5729 35.4478 79.724 35.3398 79.8776 35.176C80.2113 34.8205 80.1637 34.7972 79.7706 35.1243ZM192.308 56.4851C192.308 61.2646 192.323 63.2023 192.341 60.7915C192.359 58.3807 192.359 54.4703 192.341 52.1015C192.323 49.7328 192.308 51.7055 192.308 56.4851ZM110.187 50.3875C110.228 50.5041 110.375 50.6578 110.515 50.7293C110.732 50.8408 110.743 50.8363 110.595 50.6963C110.5 50.6066 110.352 50.4524 110.268 50.3545C110.133 50.1988 110.123 50.2034 110.187 50.3875ZM25.3261 55.4434C27.5031 55.4617 31.0656 55.4617 33.2427 55.4434C35.4192 55.4252 33.6382 55.4105 29.2841 55.4105C24.9305 55.4105 23.149 55.4252 25.3261 55.4434ZM43.3637 61.9016C43.3637 62.1962 43.387 62.3164 43.4154 62.1693C43.4438 62.0218 43.4438 61.7809 43.4154 61.6338C43.387 61.4862 43.3637 61.6069 43.3637 61.9016ZM197.817 72.8183C197.965 72.8467 198.206 72.8467 198.353 72.8183C198.5 72.7899 198.38 72.7665 198.085 72.7665C197.79 72.7665 197.67 72.7899 197.817 72.8183Z" fill="#38D484"/>
<path fill-rule="evenodd" clip-rule="evenodd" d="M45.1827 2.8671C45.2801 3.02431 45.7122 3.23831 45.7112 3.12877C45.7107 3.07755 45.5768 2.97359 45.4135 2.89753C45.2502 2.82197 45.1462 2.80827 45.1827 2.8671ZM141.808 47.0441C141.792 70.3973 141.819 89.5298 141.868 89.5602C141.948 89.6099 141.948 61.1044 141.868 19.9392C141.851 11.4932 141.824 23.6903 141.808 47.0441ZM56.0685 12.6184C56.2085 12.8147 56.35 12.9755 56.3824 12.9755C56.4154 12.9755 56.3276 12.8147 56.1877 12.6184C56.0477 12.4217 55.9067 12.2609 55.8738 12.2609C55.8413 12.2609 55.9291 12.4217 56.0685 12.6184ZM79.7706 35.1243C79.6144 35.2546 79.5115 35.3865 79.5424 35.4174C79.5729 35.4478 79.724 35.3398 79.8776 35.176C80.2113 34.8205 80.1637 34.7972 79.7706 35.1243ZM192.308 56.4851C192.308 61.2646 192.323 63.2023 192.341 60.7915C192.359 58.3807 192.359 54.4703 192.341 52.1015C192.323 49.7328 192.308 51.7055 192.308 56.4851ZM110.187 50.3875C110.228 50.5041 110.375 50.6578 110.515 50.7293C110.732 50.8408 110.743 50.8363 110.595 50.6963C110.5 50.6066 110.352 50.4524 110.268 50.3545C110.133 50.1988 110.123 50.2034 110.187 50.3875ZM25.3261 55.4434C27.5031 55.4617 31.0656 55.4617 33.2427 55.4434C35.4192 55.4252 33.6382 55.4105 29.2841 55.4105C24.9305 55.4105 23.149 55.4252 25.3261 55.4434ZM43.3637 61.9016C43.3637 62.1962 43.387 62.3164 43.4154 62.1693C43.4438 62.0218 43.4438 61.7809 43.4154 61.6338C43.387 61.4862 43.3637 61.6069 43.3637 61.9016ZM197.817 72.8183C197.965 72.8467 198.206 72.8467 198.353 72.8183C198.5 72.7899 198.38 72.7665 198.085 72.7665C197.79 72.7665 197.67 72.7899 197.817 72.8183Z" fill="#38D484"/>
<path fill-rule="evenodd" clip-rule="evenodd" d="M45.1827 2.8671C45.2801 3.02431 45.7122 3.23831 45.7112 3.12877C45.7107 3.07755 45.5768 2.97359 45.4135 2.89753C45.2502 2.82197 45.1462 2.80827 45.1827 2.8671ZM141.808 47.0441C141.792 70.3973 141.819 89.5298 141.868 89.5602C141.948 89.6099 141.948 61.1044 141.868 19.9392C141.851 11.4932 141.824 23.6903 141.808 47.0441ZM56.0685 12.6184C56.2085 12.8147 56.35 12.9755 56.3824 12.9755C56.4154 12.9755 56.3276 12.8147 56.1877 12.6184C56.0477 12.4217 55.9067 12.2609 55.8738 12.2609C55.8413 12.2609 55.9291 12.4217 56.0685 12.6184ZM79.7706 35.1243C79.6144 35.2546 79.5115 35.3865 79.5424 35.4174C79.5729 35.4478 79.724 35.3398 79.8776 35.176C80.2113 34.8205 80.1637 34.7972 79.7706 35.1243ZM192.308 56.4851C192.308 61.2646 192.323 63.2023 192.341 60.7915C192.359 58.3807 192.359 54.4703 192.341 52.1015C192.323 49.7328 192.308 51.7055 192.308 56.4851ZM110.187 50.3875C110.228 50.5041 110.375 50.6578 110.515 50.7293C110.732 50.8408 110.743 50.8363 110.595 50.6963C110.5 50.6066 110.352 50.4524 110.268 50.3545C110.133 50.1988 110.123 50.2034 110.187 50.3875ZM25.3261 55.4434C27.5031 55.4617 31.0656 55.4617 33.2427 55.4434C35.4192 55.4252 33.6382 55.4105 29.2841 55.4105C24.9305 55.4105 23.149 55.4252 25.3261 55.4434ZM43.3637 61.9016C43.3637 62.1962 43.387 62.3164 43.4154 62.1693C43.4438 62.0218 43.4438 61.7809 43.4154 61.6338C43.387 61.4862 43.3637 61.6069 43.3637 61.9016ZM197.817 72.8183C197.965 72.8467 198.206 72.8467 198.353 72.8183C198.5 72.7899 198.38 72.7665 198.085 72.7665C197.79 72.7665 197.67 72.7899 197.817 72.8183Z" fill="#38D484"/>
</g>
<defs>
<clipPath id="clip0_113_21">
<rect width="202.847" height="119.016" fill="white"/>
</clipPath>
</defs>
</svg>
