<svg width="24" height="24" viewBox="0 0 24 24" fill="none" xmlns="http://www.w3.org/2000/svg">
<path d="M9 6.54107V20.7961M15 3.18107V17.4361M3 8.59307C3 7.06607 3 6.30307 3.393 5.85807C3.532 5.69907 3.701 5.57307 3.89 5.48607C5.306 4.83307 7.162 6.55207 8.66 6.49907C8.85733 6.49174 9.053 6.4644 9.247 6.41707C11.431 5.88207 12.799 3.33707 15.045 3.02707C16.332 2.84707 17.745 3.62507 18.949 4.04107C19.939 4.38307 20.434 4.55407 20.717 4.96107C21 5.36807 21 5.91007 21 6.99007V15.4121C21 16.9381 21 17.7021 20.607 18.1471C20.469 18.304 20.2997 18.4304 20.11 18.5181C18.694 19.1711 16.838 17.4531 15.34 17.5061C15.1421 17.5136 14.9455 17.5408 14.753 17.5871C12.569 18.1221 11.201 20.6671 8.955 20.9781C7.674 21.1561 4.108 20.2281 3.283 19.0431C3 18.6361 3 18.0961 3 17.0141V8.59307Z" stroke="#6A6A6A" stroke-width="1.5" stroke-linecap="round" stroke-linejoin="round"/>
</svg>
