<svg width="47" height="45" viewBox="0 0 47 45" fill="none" xmlns="http://www.w3.org/2000/svg">
<g clip-path="url(#clip0_114_40)">
<path d="M45.643 0.40918L25.5933 15.2446L29.3217 6.50159L45.643 0.40918Z" fill="#E17726"/>
<path d="M1.12988 0.426758L17.4075 6.50281L20.9478 15.3604L1.12988 0.426758Z" fill="#E27625"/>
<path d="M37.5744 31.96L46.436 32.1286L43.339 42.6497L32.5259 39.6724L37.5744 31.96Z" fill="#E27625"/>
<path d="M9.1515 31.96L14.1814 39.6725L3.38629 42.6499L0.308105 32.1286L9.1515 31.96Z" fill="#E27625"/>
<path d="M20.4666 13.104L20.8288 24.8007L9.99219 24.3077L13.0746 19.6575L13.1136 19.6126L20.4666 13.104Z" fill="#E27625"/>
<path d="M26.1473 12.9736L33.6124 19.6132L33.651 19.6577L36.7335 24.3079L25.8994 24.8009L26.1473 12.9736Z" fill="#E27625"/>
<path d="M14.4988 31.9937L20.416 36.604L13.5425 39.9226L14.4988 31.9937Z" fill="#E27625"/>
<path d="M32.2282 31.9932L33.1647 39.9228L26.3105 36.6039L32.2282 31.9932Z" fill="#E27625"/>
<path d="M26.4619 36.1694L33.4173 39.5373L26.9474 42.6123L27.0146 40.5799L26.4619 36.1694Z" fill="#D5BFB2"/>
<path d="M20.2621 36.1709L19.7311 40.5466L19.7747 42.6098L13.2896 39.5373L20.2621 36.1709Z" fill="#D5BFB2"/>
<path d="M18.2534 26.3276L20.071 30.1475L13.8828 28.3347L18.2534 26.3276Z" fill="#233447"/>
<path d="M28.4719 26.3276L32.8631 28.3342L26.6548 30.1465L28.4719 26.3276Z" fill="#233447"/>
<path d="M14.9719 31.9546L13.9716 40.1754L8.61035 32.1343L14.9719 31.9546Z" fill="#CC6228"/>
<path d="M31.7549 31.9546L38.1166 32.1343L32.7352 40.1756L31.7549 31.9546Z" fill="#CC6228"/>
<path d="M36.8901 23.8428L32.2603 28.5612L28.6908 26.93L26.9817 30.5228L25.8613 24.3445L36.8901 23.8428Z" fill="#CC6228"/>
<path d="M9.8335 23.8428L20.8642 24.3446L19.7438 30.5228L18.0344 26.9305L14.4837 28.5614L9.8335 23.8428Z" fill="#CC6228"/>
<path d="M9.52148 22.8745L14.7596 28.1898L14.9411 33.4371L9.52148 22.8745Z" fill="#E27525"/>
<path d="M37.2096 22.8652L31.7803 33.4467L31.9847 28.19L37.2096 22.8652Z" fill="#E27525"/>
<path d="M20.608 23.1982L20.8188 24.5252L21.3397 27.8308L21.0048 37.9838L19.4214 29.8278L19.4209 29.7435L20.608 23.1982Z" fill="#E27525"/>
<path d="M26.1154 23.1797L27.3056 29.7432L27.3051 29.8276L25.7177 38.0039L25.6549 35.9588L25.4072 27.7705L26.1154 23.1797Z" fill="#E27525"/>
<path d="M32.4504 27.9785L32.2731 32.5376L26.7474 36.8428L25.6304 36.0536L26.8825 29.604L32.4504 27.9785Z" fill="#F5841F"/>
<path d="M14.2949 27.979L19.8436 29.6046L21.0957 36.054L19.9786 36.8432L14.4526 32.5376L14.2949 27.979Z" fill="#F5841F"/>
<path d="M12.2324 38.5308L19.3019 41.8804L19.272 40.45L19.8635 39.9309H26.8603L27.4733 40.4483L27.4281 41.8777L34.4528 38.5392L31.0346 41.3639L26.9012 44.2028H19.8069L15.6762 41.3523L12.2324 38.5308Z" fill="#C0AC9D"/>
<path d="M25.9557 35.7236L26.9552 36.4297L27.541 41.1032L26.6933 40.3874H20.0357L19.2041 41.1176L19.7706 36.4301L20.7705 35.7236H25.9557Z" fill="#161616"/>
<path d="M44.3192 0.819824L46.726 8.04L45.2229 15.3403L46.2932 16.166L44.8449 17.2709L45.9333 18.1115L44.4921 19.4242L45.3769 20.065L43.0286 22.8075L33.3969 20.0032L33.3134 19.9584L26.3726 14.1033L44.3192 0.819824Z" fill="#763E1A"/>
<path d="M2.40676 0.819824L20.3535 14.1033L13.4126 19.9584L13.3292 20.0032L3.69733 22.8075L1.34907 20.065L2.23323 19.4246L0.792611 18.1115L1.879 17.2718L0.409097 16.1637L1.51975 15.3375L0 8.04027L2.40676 0.819824Z" fill="#763E1A"/>
<path d="M32.9256 19.3901L43.1311 22.3614L46.4467 32.5801L37.6995 32.5801L31.6724 32.6561L36.0555 24.1126L32.9256 19.3901Z" fill="#F5841F"/>
<path d="M13.8005 19.3901L10.67 24.1126L15.0537 32.6561L9.02957 32.5801H0.297852L3.59484 22.3615L13.8005 19.3901Z" fill="#F5841F"/>
<path d="M29.8213 6.45312L26.9668 14.1627L26.361 24.5776L26.1292 27.842L26.1108 36.1811H20.6148L20.5969 27.8577L20.3644 24.5748L19.7584 14.1627L16.9043 6.45312H29.8213Z" fill="#F5841F"/>
</g>
<defs>
<clipPath id="clip0_114_40">
<rect width="46.726" height="43.8057" fill="white" transform="translate(0 0.40918)"/>
</clipPath>
</defs>
</svg>
